<svg width="2457" height="2481" viewBox="0 0 2457 2481" fill="none" xmlns="http://www.w3.org/2000/svg">
<g filter="url(#filter0_f_661_362)">
<path d="M703.347 1076.2C703.347 782.841 973.9 545.029 1307.64 545.029C1641.39 545.029 1911.94 782.841 1911.94 1076.2C1911.94 1209.9 1855.74 1362.45 1762.97 1488.89C1652.19 1639.86 1489.27 1753.62 1307.64 1753.62C1129.07 1753.62 1299.48 1384.78 1188.85 1237.6C1092.72 1109.7 703.347 1212.59 703.347 1076.2Z" fill="#006BFF"/>
</g>
<g filter="url(#filter1_f_661_362)">
<path d="M735.089 1788.68C474.327 1553.08 475.545 1126.78 737.808 836.505C1000.07 546.232 1090.94 870.617 1351.7 1106.22C1612.46 1341.82 1944.37 1399.42 1682.11 1689.69C1419.85 1979.96 995.851 2024.28 735.089 1788.68Z" fill="#F43DF7" fill-opacity="0.76"/>
</g>
<g style="mix-blend-mode:screen" filter="url(#filter2_f_661_362)">
<path d="M740.937 826.529C806.685 715.581 1186.44 770.529 1365.86 826.529C1455.94 854.644 1586.74 966.727 1635.94 1019.03C1697.44 1084.41 1789.94 1344.53 1789.94 1447.53C1789.94 1555.37 1772.22 1582.04 1729.94 1623.03C1687.65 1664.01 1604.26 1678.33 1546.05 1674.25C1487.84 1670.17 1406.15 1639.43 1365.86 1568.19C1325.56 1496.94 1258.94 1313.53 1160.44 1250.53C1006.44 1152.03 896.791 1152.03 813.437 1152.03C638.236 1152.03 658.753 965.215 740.937 826.529Z" fill="#343AD7"/>
</g>
<defs>
<filter id="filter0_f_661_362" x="158.938" y="0.619385" width="2297.41" height="2297.41" filterUnits="userSpaceOnUse" color-interpolation-filters="sRGB">
<feFlood flood-opacity="0" result="BackgroundImageFix"/>
<feBlend mode="normal" in="SourceGraphic" in2="BackgroundImageFix" result="shape"/>
<feGaussianBlur stdDeviation="272.205" result="effect1_foregroundBlur_661_362"/>
</filter>
<filter id="filter1_f_661_362" x="0.227844" y="181.714" width="2317.73" height="2298.41" filterUnits="userSpaceOnUse" color-interpolation-filters="sRGB">
<feFlood flood-opacity="0" result="BackgroundImageFix"/>
<feBlend mode="normal" in="SourceGraphic" in2="BackgroundImageFix" result="shape"/>
<feGaussianBlur stdDeviation="270.042" result="effect1_foregroundBlur_661_362"/>
</filter>
<filter id="filter2_f_661_362" x="79.6641" y="162.31" width="2310.27" height="2112.6" filterUnits="userSpaceOnUse" color-interpolation-filters="sRGB">
<feFlood flood-opacity="0" result="BackgroundImageFix"/>
<feBlend mode="normal" in="SourceGraphic" in2="BackgroundImageFix" result="shape"/>
<feGaussianBlur stdDeviation="300" result="effect1_foregroundBlur_661_362"/>
</filter>
</defs>
</svg>
