<?xml version="1.0" encoding="UTF-8"?><svg id="a" xmlns="http://www.w3.org/2000/svg" viewBox="0 0 256 256" width="512px" height="512px"><path d="M235,128c0,1.88-.49,3.72-1.43,5.35l-48.13,83.31c-.94,1.63-2.3,2.99-3.93,3.93-1.63,.94-3.49,1.43-5.37,1.42H79.87c-1.88,0-3.74-.48-5.37-1.42-1.63-.94-2.99-2.29-3.93-3.93L22.43,133.35c-.94-1.63-1.43-3.47-1.43-5.35s.49-3.72,1.43-5.35L70.56,39.35c.94-1.63,2.3-2.99,3.93-3.92,1.63-.94,3.49-1.43,5.37-1.42h96.26c1.89,0,3.74,.48,5.37,1.42,1.63,.94,2.99,2.29,3.93,3.92l48.13,83.31c.94,1.63,1.43,3.47,1.43,5.35Zm-106,51v-40m-24,0h48m-48,0v-40m48,40v-40" fill="#0a0a0c" stroke="#f2f2f9" stroke-linecap="round" stroke-linejoin="round" stroke-width="16"/></svg>